# xmcd CD database file
#
# Track frame offsets:
#	150
#	19967
#	43019
#	65659
#	83870
#	106216
#	126475
#	148272
#	172831
#	190942
#	217656
#	239235
#	269097
#	290954
#	313628
#
# Disc length: 4450 seconds
#
# Revision: 0
# Processed by: cddbd v1.5.2PL0 Copyright (c) Steve Scherf et al.
# Submitted via: CDex 1.50
#
DISCID=f111600f
DTITLE=Recopilacion Salsa - Numero 7
DYEAR=1900
DGENRE=Salsa
TTITLE0=amantes de otro tiempo -frankie ruiz
TTITLE1=como lo hace - frankie ruiz
TTITLE2=dejarme soñar-tony vega
TTITLE3=en epoca de celo - frankie ruiz
TTITLE4=esta vez si voy pa encima - frankie ruiz
TTITLE5=libertad -frankie ruiz
TTITLE6=me acostumbrare - frankie ruiz
TTITLE7=mix -varios interpretes
TTITLE8=no hay chance - ruben blades
TTITLE9=no vale la pena - ray sepulveda
TTITLE10=otra vez -frankie ruiz
TTITLE11=plastico-ruben blades
TTITLE12=quien eres tu -luis enrique
TTITLE13=tu con el -frankie ruiz
TTITLE14=tu eres -frankie ruiz
EXTD=
EXTT0=
EXTT1=
EXTT2=
EXTT3=
EXTT4=
EXTT5=
EXTT6=
EXTT7=
EXTT8=
EXTT9=
EXTT10=
EXTT11=
EXTT12=
EXTT13=
EXTT14=
PLAYORDER=
